<svg width="100" height="50" viewBox="0 0 100 50" fill="none" xmlns="http://www.w3.org/2000/svg">
  <path d="M30 15C18.9543 15 10 23.9543 10 35C10 46.0457 18.9543 55 30 55C36.3886 55 42.1008 52.0163 45.8123 47.3887L54.1877 37.6113C57.8992 32.9837 63.6114 30 70 30C81.0457 30 90 38.9543 90 50C90 61.0457 81.0457 70 70 70C63.6114 70 57.8992 67.0163 54.1877 62.3887L45.8123 52.6113C42.1008 47.9837 36.3886 45 30 45C18.9543 45 10 53.9543 10 65" stroke="currentColor" stroke-width="8" stroke-linecap="round"/>
</svg>
